<svg width="197" height="20" xmlns="http://www.w3.org/2000/svg" fill-rule="evenodd" clip-rule="evenodd" stroke-linejoin="round" stroke-miterlimit="2"><path d="M9.112 15.057V10.89H2.88v4.167H.78V6.724h2.1V8.79h6.233V6.724h2.1v8.333h-2.1zm0-8.333H7.046V2.557h2.066v4.167zm-6.233 0V2.557h2.067v4.167H2.879zm4.167-4.167h-2.1v-2.1h2.1v2.1zM22.03 15.057V6.724h2.1v8.333h-2.1zm-8.334 0V4.624h8.333v2.1h-6.233v8.333h-2.1zM34.946 8.79V6.724h2.1V8.79h-2.1zm-6.233 4.167h6.233v2.1h-6.233v-2.1zm6.233 0V10.89h2.1v2.067h-2.1zm-6.233 0h-2.1V6.724h2.1v6.233zm6.233-6.233h-6.233v-2.1h6.233v2.1zM43.696 15.057V4.624h2.1v10.433h-2.1zm0-12.5v-2.1h2.1v2.1h-2.1zM50.38 12.957h6.232v2.1H50.38v-2.1zm0 0h-2.1V6.724h2.1V8.79h6.232v2.1H50.38v2.067zm6.232-4.167V6.724h2.1V8.79h-2.1zm0-2.066H50.38v-2.1h6.233v2.1zM69.53 15.057V6.724h2.1v8.333h-2.1zm-8.334 0V4.624h8.333v2.1h-6.233v8.333h-2.1zM80.38 12.957h4.166v2.1H80.38v-2.1zm0 0h-2.1V6.724h-4.167v-2.1h4.167V2.557h2.1v2.067h4.166v2.1H80.38v6.233zM104.112 4.624V2.557h2.1v2.067h-2.1zm-6.233 8.333h6.233v2.1H97.88v-2.1zm6.233 0V10.89h2.1v2.067h-2.1zm-6.233 0h-2.1v-10.4h2.1v10.4zm6.233-10.4H97.88v-2.1h6.233v2.1zM110.796 12.957h6.233v2.1h-6.233v-2.1zm6.233 0V6.724h2.1v6.233h-2.1zm-6.233 0h-2.1V6.724h2.1v6.233zm6.233-6.233h-6.233v-2.1h6.233v2.1zM129.946 15.057V6.724h2.1v8.333h-2.1zm-8.333 0V4.624h4.167v2.1h2.1v6.233h-2.1V6.724h-2.067v8.333h-2.1zm8.333-8.333h-2.066v-2.1h2.066v2.1zM134.53 19.224v-14.6h8.332v2.1h2.1v6.233h-2.1V6.724h-6.233v6.233h6.233v2.1h-6.233v4.167h-2.1zM157.88 15.057h-8.334v-2.1h6.233V4.624h2.1v10.433zm-8.334-2.1h-2.1V4.624h2.1v8.333zM166.63 12.957h4.166v2.1h-4.166v-2.1zm0 0h-2.1V6.724h-4.167v-2.1h4.167V2.557h2.1v2.067h4.166v2.1h-4.166v6.233zM175.38 12.957h6.232v2.1h-6.233v-2.1zm0 0h-2.1V6.724h2.1V8.79h6.232v2.1h-6.233v2.067zm6.232-4.167V6.724h2.1V8.79h-2.1zm0-2.066h-6.233v-2.1h6.233v2.1zM186.196 15.057V4.624h8.333v2.1h2.1V8.79h-2.1V6.724h-6.233v8.333h-2.1z" fill-rule="nonzero"/></svg>